<?xml version="1.0" standalone="no"?>
<!DOCTYPE svg PUBLIC "-//W3C//DTD SVG 20010904//EN"
 "http://www.w3.org/TR/2001/REC-SVG-20010904/DTD/svg10.dtd">
<svg version="1.0" xmlns="http://www.w3.org/2000/svg"
 width="300.000000pt" height="300.000000pt" viewBox="0 0 300.000000 300.000000"
 preserveAspectRatio="xMidYMid meet">
<metadata>
Created by potrace 1.14, written by Peter Selinger 2001-2017
</metadata>
<g transform="translate(0.000000,300.000000) scale(0.100000,-0.100000)"
fill="#000000" stroke="none">
<path d="M1418 2955 c-2 -2 -30 -5 -63 -8 -112 -11 -150 -19 -265 -54 -186
-56 -325 -125 -469 -234 -74 -56 -188 -164 -240 -229 -20 -25 -39 -47 -42 -50
-11 -9 -96 -144 -126 -200 -61 -114 -122 -290 -149 -435 -25 -130 -25 -344 0
-505 7 -45 51 -200 75 -265 18 -47 113 -234 143 -281 93 -142 261 -312 405
-407 55 -37 103 -67 107 -67 3 0 23 -11 44 -23 51 -32 257 -107 342 -123 14
-3 43 -9 66 -14 97 -22 282 -29 409 -16 211 22 485 120 656 237 310 210 519
514 615 894 4 17 8 32 9 35 1 3 5 34 10 70 4 36 9 76 11 90 5 35 4 216 -1 268
-11 113 -29 193 -77 337 -118 355 -391 664 -733 830 -107 52 -268 107 -355
121 -14 3 -48 9 -75 14 -43 9 -290 21 -297 15z"/>
</g>
</svg>
